<ttFont>
          <CharString index="0">
            -4 callsubr
            192 213 49 116 133 vhcurveto
            -131 39 115 -34 198 hhcurveto
            162 89 39 23 25 hvcurveto
            115 vlineto
            -91 -56 37 107 hvcurveto
            352 vlineto
            422 -307 90 -395 -329 -351 -88 -274 vhcurveto
            401 -55 rlineto
            143 19 120 56 -82 callsubr
            517 44 -53 callsubr
            -126 -11 -161 -43 -98 hhcurveto
            -95 -81 44 73 hvcurveto
            endchar
          </CharString>
          <CharString index="1">
            rmoveto
            -419 347 -173 477 6 callsubr
            402 -347 191 -477 5 callsubr
            vhcurveto
            526 -89 callsubr
            endchar
          </CharString>
          <CharString index="2">
            -7 callsubr
            9 callsubr
            554 -479 201 -465 7 callsubr
            vhcurveto
            588 hmoveto
            -48 callsubr
            8 callsubr
            -207 -147 237 314 vhcurveto
            endchar
          </CharString>
          <CharString index="3">
            rmoveto
            -369 313 -207 487 259 354 83 245 102 vhcurveto
            -25 callsubr
            -182 -170 74 276 -11 hvcurveto
            977 -8 callsubr
            -365 -454 -120 -489 vhcurveto
            535 162 -44 callsubr
          </CharString>
          <CharString index="4">
            rmoveto
            -90 callsubr
            -1167 hlineto
            210 -65 callsubr
          </CharString>
          <CharString index="5">
            1019 hlineto
            -181 0 callsubr
            319 307 vlineto
            102 87 -99 -138 hvcurveto
            -123 vlineto
            -152 -213 rlineto
            984 hlineto
            -281 234 rlineto
            58 vlineto
            205 -134 159 -169 25 vhcurveto
            217 63 139 111 186 24 callsubr
            -181 -475 -3 -4 -378 vhcurveto
            1 callsubr
            515 rmoveto
            456 146 vlineto
            180 234 -18 -213 -185 -133 -40 -281 hvcurveto
            return
          </CharString>
          <CharString index="6">
            rmoveto
            -100 callsubr
            -606 hmoveto
            -100 callsubr
            return
          </CharString>
          <CharString index="7">
            113 91 85 112 113 -91 85 -60 callsubr
            -90 -85 -60 callsubr
            90 -85 112 hvcurveto
            return
          </CharString>
          <CharString index="8">
            1263 -101 callsubr
            return
          </CharString>
          <CharString index="9">
            rmoveto
            -470 208 -236 582 415 285 141 565 vhcurveto
            513 vlineto
            256 0 callsubr
            -757 hlineto
            218 11 callsubr
            -453 vlineto
            -433 -132 -90 -212 -232 -114 139 384 vhcurveto
            454 vlineto
            254 253 rlineto
            -1052 25 callsubr
            endchar
          </CharString>
          <CharString index="10">
            rmoveto
            -95 callsubr
            -606 hmoveto
            -95 callsubr
            return
          </CharString>
          <CharString index="11">
            -1405 -107 callsubr
          </CharString>
          <CharString index="12">
            113 91 75 112 113 -91 75 -60 callsubr
            -90 -75 -60 callsubr
            90 -75 112 hvcurveto
            return
          </CharString>
          <CharString index="13">
            rmoveto
            53 52 49 20 50 hhcurveto
            53 53 -20 -26 58 hvcurveto
            -35 79 87 -40 105 hhcurveto
            130 132 139 98 65 hvcurveto
            -66 75 rlineto
            -55 -53 -50 -20 -50 hhcurveto
            -57 -58 25 28 -63 hvcurveto
            33 -75 -82 37 -98 hhcurveto
            -130 -132 -139 -98 -65 hvcurveto
            return
          </CharString>
          <CharString index="14">
            rmoveto
            35 68 62 23 74 hhcurveto
            93 85 -24 -27 84 hvcurveto
            -29 90 89 -28 98 hhcurveto
            200 139 128 91 71 hvcurveto
            -86 75 rlineto
            -35 -69 -62 -23 -74 hhcurveto
            -104 -94 30 30 -93 hvcurveto
            26 -80 -80 22 -87 hhcurveto
            -200 -140 -128 -91 -70 hvcurveto
            return
          </CharString>
          <CharString index="15">
            1542 -97 callsubr
            return
          </CharString>
          <CharString index="16">
            932 -47 callsubr
            61 -24 callsubr
            932 -31 callsubr
            340 vlineto
            372 -174 190 -310 return
          </CharString>
          <CharString index="17">
            931 70 callsubr
            251 47 105 rlineto
            660 hlineto
            43 -105 -218 -251 rlineto
            1050 hlineto
            -263 253 -422 927 181 0 callsubr
            return
          </CharString>
          <CharString index="18">
            hmoveto
            -5 callsubr
            163 135 -166 -247 -3 callsubr
            -163 -135 158 246 vhcurveto
            return
          </CharString>
          <CharString index="19">
            rmoveto
            -5 -28 -6 -39 -31 vvcurveto
            -247 200 -157 346 290 202 86 389 142 vhcurveto
            334 914 235 193 rlineto
            -729 -32 callsubr
            -889 hlineto
            255 -217 386 -890 rlineto
            317 hlineto
            -136 -34 -78 -123 -146 hhcurveto
            -175 -66 111 129 28 4 29 8 29 hvcurveto
            endchar
          </CharString>
          <CharString index="20">
            -86 callsubr
            281 -12 callsubr
            endchar
          </CharString>
          <CharString index="21">
            1807 -83 callsubr
            -1817 hlineto
            return
          </CharString>
          <CharString index="22">
            1347 -94 callsubr
            return
          </CharString>
          <CharString index="23">
            1606 -93 callsubr
            return
          </CharString>
          <CharString index="24">
            473 hlineto
            -409 21 callsubr
            -590 425 602 220 -602 331 590 hlineto
            -2 callsubr
            return
          </CharString>
          <CharString index="25">
            117 hhcurveto
            182 39 -111 -192 6 hvcurveto
            3 -70 -73 2 -62 hhcurveto
            -335 -422 -52 -320 hvcurveto
            return
          </CharString>
          <CharString index="26">
            rmoveto
            150 122 122 149 150 -122 122 -150 -149 -122 -122 -150 -149 122 -122 149 hvcurveto
            143 vmoveto
            -71 -57 57 71 71 57 58 71 71 58 -58 -71 -71 -58 -57 -71 hvcurveto
            return
          </CharString>
          <CharString index="27">
            138 112 111 34 callsubr
            -112 112 35 callsubr
            -111 -112 -138 return
          </CharString>
          <CharString index="28">
            rmoveto
            -372 174 -190 310 197 163 88 156 99 vhcurveto
            -222 vlineto
            739 30 -262 224 rlineto
            870 vlineto
            -741 -30 264 21 callsubr
            return
          </CharString>
          <CharString index="29">
            -91 callsubr
            -202 -162 -93 -163 -95 vhcurveto
            217 vlineto
            -739 -56 callsubr
          </CharString>
          <CharString index="30">
            -28 callsubr
            863 vlineto
            -729 -56 callsubr
          </CharString>
          <CharString index="31">
            -1162 -105 callsubr
          </CharString>
          <CharString index="32">
            -1140 -79 callsubr
            -256 vlineto
            -222 -109 -125 -146 -42 callsubr
          </CharString>
          <CharString index="33">
            -1212 -98 callsubr
          </CharString>
          <CharString index="34">
            rmoveto
            -117 89 -64 108 10 22 1 4 13 vhcurveto
            -26 -45 -37 -47 -66 -47 67 -63 rcurveline
            150 72 119 109 178 vvcurveto
            135 -112 45 -115 -139 -83 -51 -110 vhcurveto
            endchar
          </CharString>
          <CharString index="35">
            46 callsubr
            -103 callsubr
          </CharString>
          <CharString index="36">
            rmoveto
            -1 callsubr
            -80 callsubr
            vhcurveto
            endchar
          </CharString>
          <CharString index="37">
            rmoveto
            -77 callsubr
          </CharString>
          <CharString index="38">
            rmoveto
            301 hlineto
            339 116 331 -116 rlineto
            301 hlineto
            -411 316 rlineto
            -441 hlineto
            return
          </CharString>
          <CharString index="39">
            rmoveto
            191 hlineto
            359 185 360 -185 rlineto
            191 hlineto
            -380 416 rlineto
            -341 hlineto
            return
          </CharString>
          <CharString index="40">
            1563 -69 callsubr
            return
          </CharString>
          <CharString index="41">
            1247 -68 callsubr
            return
          </CharString>
          <CharString index="42">
            -245 -471 -938 rlineto
            491 314 rmoveto
            253 564 229 -564 rlineto
            endchar
          </CharString>
          <CharString index="43">
            -30 262 -224 rlineto
            return
          </CharString>
          <CharString index="44">
            166 74 123 134 215 vvcurveto
            165 -117 109 -137 -158 -90 -100 -125 return
          </CharString>
          <CharString index="45">
            -2 -14 0 -12 -13 vvcurveto
            -221 226 -121 212 295 255 140 334 vhcurveto
            1173 vlineto
            -729 -64 callsubr
            -873 vlineto
            -164 -24 -143 -116 -84 -54 89 101 24 4 26 8 28 vhcurveto
            return
          </CharString>
          <CharString index="46">
            -64 callsubr
            -609 vlineto
            return
          </CharString>
          <CharString index="47">
            -113 -112 return
          </CharString>
          <CharString index="48">
            -5 40 hmoveto
            902 hlineto
            -164 214 rlineto
            134 vlineto
            99 76 237 -278 -104 -146 rlineto
            872 hlineto
            -184 144 -489 535 559 428 rlineto
            -782 hlineto
            167 -222 -375 -289 rlineto
            return
          </CharString>
          <CharString index="49">
            46 callsubr
            rmoveto
            -87 callsubr
          </CharString>
          <CharString index="50">
            102 49 -76 -109 -19 0 -19 -5 -21 vhcurveto
            365 33 rlineto
            8 34 2 38 34 vvcurveto
            217 -98 159 -222 -168 -171 -86 -165 -104 vhcurveto
            212 vlineto
            -739 -61 callsubr
            return
          </CharString>
          <CharString index="51">
            -61 callsubr
            endchar
          </CharString>
          <CharString index="52">
            749 hlineto
            -232 0 callsubr
            1180 -749 vlineto
            40 callsubr
            endchar
          </CharString>
          <CharString index="53">
            41 callsubr
            -41 callsubr
            return
          </CharString>
          <CharString index="54">
            rmoveto
            97 111 58 285 15 17 0 -1 18 vhcurveto
            -102 vlineto
            return
          </CharString>
          <CharString index="55">
            158 90 100 125 144 -92 81 -139 -30 -20 -5 -5 -19 hvcurveto
            19 84 46 58 89 52 -67 63 rcurveline
            -166 -74 -123 -134 -215 vvcurveto
            -165 117 -109 137 vhcurveto
            return
          </CharString>
          <CharString index="56">
            -46 callsubr
            67 -63 rcurveline
            -63 callsubr
            vhcurveto
            return
          </CharString>
          <CharString index="57">
            -156 -123 -220 -34 -168 hhcurveto
            -197 -187 124 245 290 184 87 171 187 129 -128 -171 50 hvcurveto
            250 30 rlineto
            484 vlineto
            -209 -121 return
          </CharString>
          <CharString index="58">
            rmoveto
            -63 callsubr
            -46 callsubr
            rrcurveto
            return
          </CharString>
          <CharString index="59">
            -6 callsubr
            217 139 -247 -313 return
          </CharString>
          <CharString index="60">
            hlineto
            -184 18 callsubr
            269 vlineto
            232 105 132 150 150 return
          </CharString>
          <CharString index="61">
            -144 92 -81 139 30 20 5 5 19 vhcurveto
            -19 -84 -46 -58 -89 -52 return
          </CharString>
          <CharString index="62">
            1247 -40 callsubr
            return
          </CharString>
          <CharString index="63">
            rmoveto
            167 28 90 97 151 hhcurveto
            143 73 -67 -197 hvcurveto
            endchar
          </CharString>
          <CharString index="64">
            -112 56 69 callsubr
            -418 367 -339 453 453 368 339 418 418 -368 339 -453 -453 -367 -339 -418 vhcurveto
            172 -4 rmoveto
            357 290 291 358 358 290 -291 -357 -358 -290 -290 -358 -358 -290 290 358 vhcurveto
            return
          </CharString>
          <CharString index="65">
            -150 -61 143 171 vhcurveto
            563 10 callsubr
            endchar
          </CharString>
          <CharString index="66">
            371 hlineto
            710 316 rlineto
            -671 hlineto
            return
          </CharString>
          <CharString index="67">
            rmoveto
            211 hlineto
            600 -19 callsubr
            return
          </CharString>
          <CharString index="68">
            -79 callsubr
            -239 vlineto
            -232 -105 -132 -150 -42 callsubr
          </CharString>
          <CharString index="69">
            30 callsubr
            -300 -217 190 350 286 139 255 336 -27 callsubr
            -499 -495 -222 -533 return
          </CharString>
          <CharString index="70">
            144 117 116 67 callsubr
            -117 117 68 callsubr
            -116 -117 -144 return
          </CharString>
          <CharString index="71">
            -59 callsubr
            988 16 callsubr
            return
          </CharString>
          <CharString index="72">
            131 40 hmoveto
            -91 callsubr
            45 callsubr
            vhcurveto
            return
          </CharString>
          <CharString index="73">
            rmoveto
            -80 callsubr
            -1 callsubr
            hvcurveto
            return
          </CharString>
          <CharString index="74">
            rmoveto
            -37 callsubr
            33 callsubr
            hvcurveto
            return
          </CharString>
          <CharString index="75">
            hlineto
            121 -173 -199 -721 -240 728 117 166 rlineto
            return
          </CharString>
          <CharString index="76">
            hlineto
            -271 18 callsubr
            return
          </CharString>
          <CharString index="77">
            rmoveto
            247 135 93 143 163 115 -120 -220 -219 -115 -112 -163 -135 -143 90 241 vhcurveto
            endchar
          </CharString>
          <CharString index="78">
            rmoveto
            -253 -100 rlineto
            -62 callsubr
            endchar
          </CharString>
          <CharString index="79">
            1009 -31 callsubr
            return
          </CharString>
          <CharString index="80">
            261 190 -166 -216 64 hvcurveto
            265 50 rlineto
            508 -209 vlineto
            -73 -95 rlineto
            69 -127 -195 64 -245 hhcurveto
            return
          </CharString>
          <CharString index="81">
            rmoveto
            844 hlineto
            -301 253 rlineto
            651 vlineto
            990 -904 rlineto
            272 1180 hlineto
            251 0 callsubr
            -803 hlineto
            280 11 callsubr
            -466 vlineto
            -806 720 rlineto
            -764 hlineto
            308 -282 rlineto
            -899 vlineto
            endchar
          </CharString>
          <CharString index="82">
            -102 80 rlineto
            -146 -129 -232 -30 -162 hhcurveto
            return
          </CharString>
          <CharString index="83">
            -143 -171 vhcurveto
            -319 vlineto
            -184 21 callsubr
            return
          </CharString>
          <CharString index="84">
            -50 callsubr
            rlineto
            64 -105 -162 49 -217 hhcurveto
            return
          </CharString>
          <CharString index="85">
            288 30 hmoveto
            -4 357 592 -3 116 hhcurveto
            581 388 282 492 267 -110 226 -254 102 hvcurveto
            57 -142 -190 22 -233 hhcurveto
            -181 -615 -4 -3 -308 hvcurveto
            310 11 callsubr
            return
          </CharString>
          <CharString index="86">
            1247 -16 callsubr
            return
          </CharString>
          <CharString index="87">
            1563 -15 callsubr
            return
          </CharString>
          <CharString index="88">
            416 rlineto
            -501 hlineto
            return
          </CharString>
          <CharString index="89">
            -1663 -70 callsubr
          </CharString>
          <CharString index="90">
            -1215 rmoveto
            592 -73 hlineto
            -163 -146 rlineto
            672 38 callsubr
            73 195 151 -195 566 -402 vlineto
            -536 -624 rlineto
            278 58 rmoveto
            314 354 rlineto
            -354 vlineto
            endchar
          </CharString>
          <CharString index="91">
            rmoveto
            211 hlineto
            -310 -19 callsubr
            return
          </CharString>
          <CharString index="92">
            rmoveto
            351 hlineto
            -410 316 rlineto
            -651 hlineto
            return
          </CharString>
          <CharString index="93">
            rmoveto
            -135 102 -100 129 9 6 0 1 5 vhcurveto
            -24 -81 -44 -85 -68 -81 104 -59 rcurveline
            190 127 99 178 212 vvcurveto
            168 -107 112 -151 -152 -96 -110 -147 -2 vhcurveto
            endchar
          </CharString>
          <CharString index="94">
            102 hlineto
            41 103 92 298 89 vvcurveto
            118 -80 49 -104 -104 -80 -49 -118 -89 92 -298 41 -103 vhcurveto
            return
          </CharString>
          <CharString index="95">
            11 callsubr
            -926 vlineto
            return
          </CharString>
          <CharString index="96">
            hhcurveto
            401 344 139 331 371 -304 82 -405 66 hvcurveto
            -406 66 -74 45 89 vvcurveto
            62 99 50 161 246 302 -90 -167 284 vhcurveto
            480 -137 vlineto
            -196 -108 return
          </CharString>
          <CharString index="97">
            rmoveto
            -178 84 187 -55 203 hhcurveto
            180 208 64 144 131 -117 67 -163 hvcurveto
            return
          </CharString>
          <CharString index="98">
            hhcurveto
            -446 -272 -176 -290 -304 232 -130 496 -64 hvcurveto
            371 -48 73 -81 -78 vvcurveto
            -86 -117 -30 -128 -333 -313 134 170 -260 vhcurveto
            endchar
          </CharString>
          <CharString index="99">
            hlineto
            444 -297 159 -388 return
          </CharString>
          <CharString index="100">
            rmoveto
            -563 498 -193 444 return
          </CharString>
          <CharString index="101">
            313 147 247 207 return
          </CharString>
          <CharString index="102">
            247 135 166 163 return
          </CharString>
          <CharString index="103">
            rmoveto
            -245 250 -52 191 return
          </CharString>
          <CharString index="104">
            -246 -135 -158 -163 return
          </CharString>
          <CharString index="105">
            399 -267 20 496 rlineto
            return
          </CharString>
          <CharString index="106">
            -138 111 -111 138 return
          </CharString>
          <CharString index="107">
            254 rlineto
            return
          </CharString>
          <CharString index="108">
            310 -12 callsubr
            527 return
          </CharString>
          <CharString index="109">
            369 647 -34 callsubr
            -249 return
          </CharString>
          <CharString index="110">
            rmoveto
            126 -76 647 537 -647 537 -126 -76 304 -464 rlineto
            return
          </CharString>
          <CharString index="111">
            rmoveto
            647 -537 126 76 -305 458 305 464 -126 76 rlineto
            return
          </CharString>
          <CharString index="112">
            -477 -347 -191 -402 return
          </CharString>
          <CharString index="113">
            477 347 173 419 return
          </CharString>
          <CharString index="114">
            -424 -518 -201 -554 return
          </CharString>
          <CharString index="115">
            -308 -149 -243 -207 return
          </CharString>
          <CharString index="116">
            445 499 212 544 return
          </CharString>
          <CharString index="117">
            vlineto
            -748 -30 271 21 callsubr
            return
          </CharString>
          <CharString index="118">
            -254 rlineto
            return
          </CharString>
          <CharString index="119">
            -147 94 160 -69 201 15 callsubr
            -194 -160 -73 -151 -94 hvcurveto
            return
          </CharString>
          <CharString index="120">
            rmoveto
            220 115 120 163 143 135 -93 -247 -241 -143 -90 -135 -163 -115 112 219 vhcurveto
            endchar
          </CharString>
          <CharString index="121">
            rlineto
            82 82 -7 -63 -46 -47 -16 -56 -113 -72 45 82 -48 hvcurveto
            endchar
          </CharString>
          <CharString index="122">
            hhcurveto
            442 185 281 298 335 -221 271 -413 return
          </CharString>
          <CharString index="123">
            vlineto
            -729 58 callsubr
            return
          </CharString>
          <CharString index="124">
            rmoveto
            1008 242 -1008 hlineto
            return
          </CharString>
          <CharString index="125">
            244 rlineto
            return
          </CharString>
          <CharString index="126">
            250 rlineto
            -839 hlineto
            164 -201 -232 23 callsubr
            302 -243 return
          </CharString>
          <CharString index="127">
            200 549 rmoveto
            654 38 callsubr
            774 -114 vlineto
            -413 -138 199 -74 rlineto
            -562 vlineto
            return
          </CharString>
          <CharString index="128">
            -244 rlineto
            return
          </CharString>
          <CharString index="129">
            1208 rmoveto
            341 hlineto
            380 416 rlineto
            -191 hlineto
            -360 -186 -359 186 rlineto
            -191 hlineto
            return
          </CharString>
          <CharString index="130">
            -490 -278 499 135 192 rlineto
            -989 hlineto
            return
          </CharString>
          <CharString index="131">
            vvcurveto
            369 -522 31 -381 return
          </CharString>
          <CharString index="132">
            54 callsubr
            -253 rlineto
            return
          </CharString>
          <CharString index="133">
            37 callsubr
            1340 16 callsubr
            return
          </CharString>
          <CharString index="134">
            138 111 112 34 callsubr
            -111 111 35 callsubr
            -112 -111 -138 return
          </CharString>
          <CharString index="135">
            rmoveto
            242 382 383 242 -383 383 -242 -383 -383 -242 383 hlineto
            return
          </CharString>
          <CharString index="136">
            rmoveto
            229 hlineto
            835 1434 rlineto
            -231 hlineto
            return
          </CharString>
          <CharString index="137">
            -306 hlineto
            -258 -20 -191 -119 -235 hhcurveto
            return
          </CharString>
          <CharString index="138">
            193 213 106 244 245 -213 106 -193 -193 -212 -106 -245 return
          </CharString>
          <CharString index="139">
            216 vlineto
            258 154 -170 -298 -324 -101 -224 -331 hvcurveto
            endchar
          </CharString>
          <CharString index="140">
            -144 116 -116 144 return
          </CharString>
          <CharString index="141">
            138 138 return
          </CharString>
          <CharString index="142">
            -138 -138 return
          </CharString>
          <CharString index="143">
            104 311 -192 rmoveto
            -271 21 callsubr
            1119 hlineto
            -371 18 callsubr
            return
          </CharString>
          <CharString index="144">
            40 hmoveto
            -28 callsubr
            return
          </CharString>
          <CharString index="145">
            hlineto
            -163 146 rlineto
            return
          </CharString>
          <CharString index="146">
            vlineto
            258 154 -31 -217 -216 -101 -52 -331 hvcurveto
            endchar
          </CharString>
          <CharString index="147">
            232 11 callsubr
            return
          </CharString>
          <CharString index="148">
            1563 rmoveto
            return
          </CharString>
          <CharString index="149">
            hhcurveto
            564 378 74 425 393 -451 63 -405 return
          </CharString>
          <CharString index="150">
            146 44 83 97 101 40 -83 -146 -142 -45 -81 -96 return
          </CharString>
          <CharString index="151">
            381 0 callsubr
            -1189 54 callsubr
            11 callsubr
            return
          </CharString>
          <CharString index="152">
            -197 -163 -89 -156 -99 return
          </CharString>
          <CharString index="153">
            -1879 return
          </CharString>
          <CharString index="154">
            371 vvcurveto
            175 -170 102 -325 -239 return
          </CharString>
          <CharString index="155">
            vlineto
            -739 58 callsubr
            return
          </CharString>
          <CharString index="156">
            52 124 85 81 -47 -97 vhcurveto
            -228 -682 return
          </CharString>
          <CharString index="157">
            hlineto
            104 366 rlineto
            -221 hlineto
            -103 -366 rlineto
            return
          </CharString>
          <CharString index="158">
            vlineto
            -262 -108 rlineto
            73 -159 -165 return
          </CharString>
          <CharString index="159">
            47 vvcurveto
            49 87 39 127 193 259 return
          </CharString>
          <CharString index="160">
            -166 hhcurveto
            -309 -264 -137 -255 return
          </CharString>
          <CharString index="161">
            hlineto
            281 return
          </CharString>
          <CharString index="162">
            -46 rlineto
            -5 19 -3 17 16 vvcurveto
            131 return
          </CharString>
          <CharString index="163">
            262 117 rlineto
            -85 162 175 return
          </CharString>
          <CharString index="164">
            -55 vvcurveto
            -67 -102 -24 -100 -261 -268 return
          </CharString>
          <CharString index="165">
            -64 callsubr
            -1086 vlineto
            return
          </CharString>
          <CharString index="166">
            -59 -202 -17 2 -24 4 -9 vhcurveto
            return
          </CharString>
          <CharString index="167">
            -49 -212 -18 1 -18 4 -20 vhcurveto
            return
          </CharString>
          <CharString index="168">
            -112 -80 -60 -51 -113 -128 return
          </CharString>
          <CharString index="169">
            1720 rlineto
            -271 hlineto
            endchar
          </CharString>
          <CharString index="170">
            483 379 212 381 return
          </CharString>
          <CharString index="171">
            -14 rmoveto
            197 hlineto
            160 100 return
          </CharString>
          <CharString index="172">
            55 102 86 45 -59 -76 -100 -66 return
          </CharString>
          <CharString index="173">
            -93 92 -113 -113 -92 -92 return
          </CharString>
          <CharString index="174">
            144 144 return
          </CharString>
          <CharString index="175">
            -144 -144 return
          </CharString>
          <CharString index="176">
            717 rmoveto
            return
          </CharString>
          <CharString index="177">
            hlineto
            -287 return
          </CharString>
        <CharString name=".notdef">
          endchar
        </CharString>
        <CharString name=".null">
          endchar
        </CharString>
        <CharString name="A">
          260 -60 hmoveto
          -90 callsubr
          -1172 hlineto
          215 -65 callsubr
        </CharString>
        <CharString name="AE">
          859 -213 hmoveto
          811 hlineto
          -155 206 105 150 rlineto
          516 -102 hlineto
          -281 11 callsubr
          -86 callsubr
          140 -127 -820 -1085 rlineto
          592 343 rmoveto
          369 523 rlineto
          -523 vlineto
          endchar
        </CharString>
        <CharString name="Aacute">
          260 710 -54 callsubr
          -1180 -72 callsubr
        </CharString>
        <CharString name="Acircumflex">
          260 413 -67 callsubr
          -893 -72 callsubr
        </CharString>
        <CharString name="Adieresis">
          260 1355 -92 callsubr
          -809 -1542 -103 callsubr
        </CharString>
        <CharString name="Agrave">
          260 1031 -20 callsubr
          -381 -72 callsubr
        </CharString>
        <CharString name="Aring">
          260 1075 1377 -81 callsubr
          -1135 -1520 -103 callsubr
        </CharString>
        <CharString name="Atilde">
          260 526 -84 callsubr
          -500 -1681 -103 callsubr
        </CharString>
        <CharString name="B">
          242 30 hmoveto
          -3 322 582 -4 181 hhcurveto
          381 522 31 369 225 -193 80 -294 29 hvcurveto
          250 26 147 78 210 24 callsubr
          -163 -537 -4 -3 -294 vhcurveto
          1 callsubr
          565 rmoveto
          406 126 vlineto
          177 217 -27 -186 -192 -270 -1 -124 hvcurveto
          -126 -610 rmoveto
          426 196 vlineto
          281 133 -53 -152 -213 -234 -8 -180 hvcurveto
          endchar
        </CharString>
        <CharString name="C">
          188 90 69 callsubr
          -585 538 -171 457 63 callsubr
          vhcurveto
          -38 callsubr
          hvcurveto
          endchar
        </CharString>
        <CharString name="CR">
          endchar
        </CharString>
        <CharString name="Ccedilla">
          191 568 -284 -10 callsubr
          74 vlineto
          451 18 346 209 364 vvcurveto
          -38 callsubr
          -513 413 -195 410 -39 hvcurveto
          -20 -167 14 callsubr
        </CharString>
        <CharString name="D">
          -22 callsubr
          -926 vlineto
          527 -45 rmoveto
          1016 32 callsubr
        </CharString>
        <CharString name="E">
          106 30 hmoveto
          -87 callsubr
        </CharString>
        <CharString name="Eacute">
          106 727 -54 callsubr
          -1107 -58 callsubr
        </CharString>
        <CharString name="Ecircumflex">
          106 430 -67 callsubr
          -820 -58 callsubr
        </CharString>
        <CharString name="Edieresis">
          106 1372 -92 callsubr
          -736 -1542 rmoveto
          -87 callsubr
        </CharString>
        <CharString name="Egrave">
          106 1048 -20 callsubr
          -308 -58 callsubr
        </CharString>
        <CharString name="Eth">
          -22 callsubr
          -378 -196 -220 196 -328 vlineto
          527 -45 rmoveto
          373 263 220 -263 423 32 callsubr
        </CharString>
        <CharString name="Euro">
          332 40 471 rmoveto
          228 hlineto
          -389 130 443 -121 385 hhcurveto
          63 callsubr
          hvcurveto
          30 callsubr
          -220 -175 102 192 -78 hvcurveto
          643 200 -686 hlineto
          -1 15 0 15 16 vvcurveto
          25 1 24 2 25 vhcurveto
          684 200 -636 hlineto
          157 67 136 110 221 hhcurveto
          -27 callsubr
          -403 -400 -145 -336 -139 hvcurveto
          -243 -200 194 hlineto
          -2 -24 -1 -25 -25 vvcurveto
          -16 0 -15 1 -15 vhcurveto
          -192 hlineto
          endchar
        </CharString>
        <CharString name="F">
          83 30 hmoveto
          1219 hlineto
          -411 0 callsubr
          300 642 220 -642 431 630 vlineto
          -2 callsubr
          -1857 54 callsubr
          -12 callsubr
          endchar
        </CharString>
        <CharString name="G">
          288 90 689 rmoveto
          -546 467 -182 541 211 204 38 101 157 vhcurveto
          55 -100 rlineto
          237 764 -803 hlineto
          291 -280 rlineto
          -250 vlineto
          -42 -69 -82 -15 -117 hhcurveto
          -267 -231 189 354 371 212 167 249 226 212 -112 -200 112 hvcurveto
          254 488 -224 hlineto
          -76 -98 rlineto
          79 -151 -215 57 -209 hhcurveto
          -519 -465 -261 -522 hvcurveto
          endchar
        </CharString>
        <CharString name="H">
          340 30 hmoveto
          798 677 550 -677 798 hlineto
          -281 0 callsubr
          926 vlineto
          262 0 callsubr
          -779 -548 -550 548 -798 25 callsubr
          -927 vlineto
          endchar
        </CharString>
        <CharString name="I">
          -765 292 hmoveto
          -55 callsubr
        </CharString>
        <CharString name="Iacute">
          -765 169 -54 callsubr
          -287 46 callsubr
          rmoveto
          -55 callsubr
        </CharString>
        <CharString name="Icircumflex">
          -765 -128 -67 callsubr
          46 callsubr
          vmoveto
          -55 callsubr
        </CharString>
        <CharString name="Idieresis">
          -765 814 -92 callsubr
          84 -1542 rmoveto
          -55 callsubr
        </CharString>
        <CharString name="Igrave">
          -765 490 -20 callsubr
          512 46 callsubr
          rmoveto
          -55 callsubr
        </CharString>
        <CharString name="Itilde">
          -765 -15 -84 callsubr
          393 -1681 rmoveto
          -55 callsubr
        </CharString>
        <CharString name="J">
          -657 125 38 rmoveto
          -57 66 174 -55 215 hhcurveto
          301 157 128 293 hvcurveto
          1087 -759 vlineto
          252 11 callsubr
          -793 vlineto
          -221 -115 -20 -134 -54 -42 6 16 -56 vhcurveto
          endchar
        </CharString>
        <CharString name="Jcircumflex">
          -836 -43 -67 callsubr
          -388 -1841 rmoveto
          -57 66 174 -55 215 hhcurveto
          301 157 128 293 hvcurveto
          1087 -759 vlineto
          252 11 callsubr
          -793 vlineto
          -221 -115 -20 -134 -54 -42 6 16 -56 vhcurveto
          endchar
        </CharString>
        <CharString name="K">
          194 30 hmoveto
          1010 hlineto
          -212 0 callsubr
          189 vlineto
          163 129 303 -434 -86 -138 rlineto
          902 hlineto
          -275 254 -460 619 715 561 rlineto
          -850 hlineto
          153 -254 -565 -430 rlineto
          431 vlineto
          172 253 rlineto
          -970 25 callsubr
          -927 vlineto
          endchar
        </CharString>
        <CharString name="L">
          -29 30 hmoveto
          1747 583 hlineto
          -409 -354 rlineto
          -530 951 hlineto
          44 callsubr
          -926 vlineto
          endchar
        </CharString>
        <CharString name="Lslash">
          -29 30 hmoveto
          1747 573 hlineto
          -409 -344 rlineto
          -530 404 hlineto
          493 133 -51 191 -442 -119 rlineto
          342 vlineto
          44 callsubr
          -484 vlineto
          -299 -80 51 -191 248 66 rlineto
          -237 vlineto
          endchar
        </CharString>
        <CharString name="M">
          599 42 hmoveto
          834 hlineto
          -301 253 rlineto
          510 vlineto
          481 -763 rlineto
          145 hlineto
          430 771 rlineto
          -517 vlineto
          -280 11 callsubr
          1078 hlineto
          -291 0 callsubr
          936 vlineto
          312 18 callsubr
          -769 hlineto
          -451 -772 -501 772 rlineto
          -724 hlineto
          298 -290 rlineto
          -891 vlineto
          endchar
        </CharString>
        <CharString name="N">
          247 42 hmoveto
          844 hlineto
          -301 0 callsubr
          650 vlineto
          990 -904 rlineto
          272 1180 hlineto
          251 0 callsubr
          -803 hlineto
          280 11 callsubr
          -466 vlineto
          -806 720 rlineto
          -764 hlineto
          308 -282 rlineto
          -898 vlineto
          endchar
        </CharString>
        <CharString name="Nacute">
          247 708 -54 callsubr
          -1076 46 callsubr
          -26 callsubr
        </CharString>
        <CharString name="Ntilde">
          247 524 -84 callsubr
          -396 -1681 -26 callsubr
        </CharString>
        <CharString name="O">
          200 90 717 -105 callsubr
        </CharString>
        <CharString name="OE">
          1144 90 69 callsubr
          -563 491 -154 471 vhcurveto
          1823 -83 callsubr
          -1833 hlineto
          -451 -511 -163 -554 hvcurveto
          588 hmoveto
          313 147 209 207 217 139 -128 -394 -389 -149 -123 -207 -207 -147 198 314 vhcurveto
          endchar
        </CharString>
        <CharString name="Oacute">
          200 690 -54 callsubr
          -1010 -76 callsubr
        </CharString>
        <CharString name="Ocircumflex">
          200 393 -67 callsubr
          -723 -76 callsubr
        </CharString>
        <CharString name="Odieresis">
          200 1335 -92 callsubr
          -639 -825 -105 callsubr
        </CharString>
        <CharString name="Ograve">
          200 1011 -20 callsubr
          -211 -76 callsubr
        </CharString>
        <CharString name="Oslash">
          200 90 69 callsubr
          -451 319 -213 355 -67 vhcurveto
          -56 -207 rlineto
          149 hlineto
          51 187 rlineto
          -3 41 42 -2 41 hhcurveto
          9 callsubr
          442 -306 217 -360 70 hvcurveto
          64 233 rlineto
          -151 hlineto
          -58 -213 rlineto
          4 -44 -45 2 -44 hhcurveto
          7 callsubr
          hvcurveto
          746 -467 rmoveto
          -98 96 -60 170 201 vvcurveto
          -6 callsubr
          27 27 -4 -8 25 vhcurveto
          -146 -1090 rmoveto
          274 1008 rlineto
          94 -99 55 -171 -196 vvcurveto
          8 callsubr
          -23 -23 3 6 -21 vhcurveto
          endchar
        </CharString>
        <CharString name="Otilde">
          200 506 -84 callsubr
          -330 -964 -105 callsubr
        </CharString>
        <CharString name="P">
          199 30 hmoveto
          1249 hlineto
          -411 0 callsubr
          236 vlineto
          -3 68 67 -1 50 42 callsubr
          -163 -561 -3 -4 -384 hvcurveto
          1 callsubr
          455 rmoveto
          516 146 39 callsubr
        </CharString>
        <CharString name="Q">
          200 90 717 -7 callsubr
          50 50 3 5 51 vhcurveto
          -235 4 123 -163 261 hhcurveto
          60 99 8 17 76 hvcurveto
          35 308 rlineto
          -14 -56 -86 -6 -37 hhcurveto
          -124 -28 69 92 -6 hvcurveto
          266 105 206 211 356 vvcurveto
          554 -499 201 -445 -444 -498 -201 -554 vhcurveto
          653 -330 rmoveto
          -42 91 -23 113 126 vvcurveto
          -48 callsubr
          -118 -22 -109 -39 -89 vhcurveto
          50 -67 -88 35 -112 hhcurveto
          -130 -112 -38 -61 -75 hvcurveto
          84 -128 rmoveto
          40 44 63 19 59 hhcurveto
          78 76 -38 -72 26 hvcurveto
          -27 -42 -48 -15 -51 hhcurveto
          -79 -70 34 59 -56 hvcurveto
          endchar
        </CharString>
        <CharString name="R">
          320 30 hmoveto
          -102 callsubr
          endchar
        </CharString>
        <CharString name="Racute">
          320 770 -54 callsubr
          -1150 46 callsubr
          rmoveto
          -102 callsubr
          endchar
        </CharString>
        <CharString name="Rcaron">
          320 889 1523 rmoveto
          361 hlineto
          460 316 rlineto
          -281 hlineto
          -359 -76 -360 76 rlineto
          -281 hlineto
          -399 -1839 rmoveto
          -102 callsubr
          endchar
        </CharString>
        <CharString name="Rcommaaccent">
          320 30 hmoveto
          -102 callsubr
          -111 -1031 -73 callsubr
        </CharString>
        <CharString name="S">
          78 182 64 callsubr
          rlineto
          -87 174 197 -38 186 -11 callsubr
          rlineto
          52 -153 -196 43 -183 -9 callsubr
        </CharString>
        <CharString name="T">
          -28 312 hmoveto
          1223 hlineto
          -354 253 rlineto
          981 194 vlineto
          388 -420 21 620 rlineto
          -1130 -4 hlineto
          -5 4 rlineto
          -595 hlineto
          21 -620 378 420 rlineto
          201 -981 hlineto
          endchar
        </CharString>
        <CharString name="Thorn">
          69 30 hmoveto
          981 hlineto
          -226 247 rlineto
          -4 37 29 -3 72 42 callsubr
          -108 -63 -2 -3 -50 hvcurveto
          223 18 callsubr
          -981 hlineto
          232 -12 callsubr
          517 209 rmoveto
          516 105 39 callsubr
        </CharString>
        <CharString name="U">
          161 291 667 -98 callsubr
        </CharString>
        <CharString name="Uacute">
          161 798 -54 callsubr
          -917 -74 callsubr
        </CharString>
        <CharString name="Ucircumflex">
          161 501 -67 callsubr
          -630 -74 callsubr
        </CharString>
        <CharString name="Udieresis">
          161 1443 -92 callsubr
          -546 -875 -98 callsubr
        </CharString>
        <CharString name="Ugrave">
          161 1119 -20 callsubr
          -118 -74 callsubr
        </CharString>
        <CharString name="V">
          113 779 hmoveto
          499 hlineto
          461 1201 298 233 rlineto
          -810 hlineto
          166 -230 -253 -791 -309 799 156 222 rlineto
          -1029 hlineto
          327 -253 rlineto
          endchar
        </CharString>
        <CharString name="W">
          803 631 hmoveto
          589 hlineto
          166 783 195 -783 rlineto
          559 hlineto
          364 1230 225 204 rlineto
          -679 hlineto
          129 -241 -207 -840 -213 839 130 242 rlineto
          -839 hlineto
          135 -234 -193 -837 -230 835 127 236 rlineto
          -929 hlineto
          250 -227 rlineto
          endchar
        </CharString>
        <CharString name="X">
          225 -10 hmoveto
          895 hlineto
          -182 178 232 293 255 -335 -95 -136 rlineto
          1006 hlineto
          -382 286 -374 476 301 357 432 315 rlineto
          -895 hlineto
          183 -178 -210 -270 -230 312 96 136 rlineto
          -1008 hlineto
          378 -284 359 -456 -327 -372 rlineto
          endchar
        </CharString>
        <CharString name="Y">
          73 479 hmoveto
          1029 hlineto
          -270 0 callsubr
          196 vlineto
          418 734 343 250 rlineto
          -845 hlineto
          164 -201 -226 23 callsubr
          298 -243 473 -741 rlineto
          -196 vlineto
          endchar
        </CharString>
        <CharString name="Yacute">
          73 751 -54 callsubr
          -662 46 callsubr
          rmoveto
          989 hlineto
          -250 224 rlineto
          216 vlineto
          403 744 358 19 callsubr
          469 -751 rlineto
          -216 vlineto
          endchar
        </CharString>
        <CharString name="Z">
          -28 50 hmoveto
          1679 647 hlineto
          -307 -418 rlineto
          -533 hlineto
          849 1205 rlineto
          -1579 -647 hlineto
          307 418 rlineto
          448 hlineto
          endchar
        </CharString>
        <CharString name="a">
          -102 94 258 -107 callsubr
        </CharString>
        <CharString name="aacute">
          -102 661 -45 callsubr
          -877 -96 callsubr
        </CharString>
        <CharString name="acircumflex">
          -102 319 -66 callsubr
          -605 -96 callsubr
        </CharString>
        <CharString name="acute">
          -850 105 1208 -40 callsubr
          endchar
        </CharString>
        <CharString name="acute.case">
          -850 1604 vmoveto
          -41 callsubr
          endchar
        </CharString>
        <CharString name="adieresis">
          -102 1172 -99 callsubr
          -472 -1005 -107 callsubr
        </CharString>
        <CharString name="ae">
          761 94 258 -4 callsubr
          283 275 66 159 131 vhcurveto
          -193 165 261 -32 226 hhcurveto
          368 213 131 197 76 hvcurveto
          -102 80 rlineto
          -138 -105 -204 -40 -155 hhcurveto
          -207 -193 50 302 -13 hvcurveto
          968 -8 callsubr
          -207 -203 -57 -122 -137 vhcurveto
          122 -107 -182 57 -254 hhcurveto
          -282 -293 -114 -235 hvcurveto
          401 -62 rlineto
          143 19 120 50 -82 callsubr
          1470 441 rmoveto
          171 29 94 93 156 hhcurveto
          129 66 -76 -188 hvcurveto
          -1427 -397 -53 callsubr
          -161 -172 -8 -98 -95 -81 44 73 vhcurveto
          endchar
        </CharString>
        <CharString name="agrave">
          -102 866 -21 callsubr
          -172 -96 callsubr
        </CharString>
        <CharString name="ampersand">
          433 110 345 rmoveto
          -295 416 -89 501 293 237 34 83 171 vhcurveto
          103 -49 95 -41 81 -27 272 349 rcurveline
          -77 22 -92 30 -99 37 rrcurveto
          21 67 11 77 87 vvcurveto
          -404 136 rlineto
          2 -24 1 -24 -24 vvcurveto
          -50 -3 -49 -7 -46 vhcurveto
          -134 58 -135 62 -123 62 rrcurveto
          296 23 195 144 200 vvcurveto
          223 -247 151 -412 -362 -332 -134 -280 -129 77 -111 146 -112 vhcurveto
          -258 -47 -233 -116 -198 vvcurveto
          933 494 rmoveto
          -128 79 -82 79 82 vvcurveto
          102 88 81 157 140 91 -66 -111 -130 -108 -73 -158 -43 vhcurveto
          -425 -440 rmoveto
          77 70 65 98 41 vhcurveto
          49 -29 54 -30 58 -31 150 -81 163 -90 160 -85 rrcurveto
          -40 -81 -109 -23 -145 hhcurveto
          -221 -246 49 177 hvcurveto
          endchar
        </CharString>
        <CharString name="aring">
          -102 871 1235 -81 callsubr
          -777 -1120 -107 callsubr
        </CharString>
        <CharString name="asciicircum">
          -423 291 329 rmoveto
          432 730 430 -730 209 131 -640 1012 -641 -1012 rlineto
          endchar
        </CharString>
        <CharString name="asciitilde">
          -319 180 545 rmoveto
          37 54 108 22 54 hhcurveto
          96 99 -22 -25 102 hvcurveto
          -30 120 122 -31 128 hhcurveto
          140 179 131 107 71 hvcurveto
          -86 75 rlineto
          -38 -54 -110 -19 -53 hhcurveto
          -105 -106 25 26 -107 hvcurveto
          28 -115 -116 29 -117 hhcurveto
          -141 -179 -134 -106 -70 hvcurveto
          endchar
        </CharString>
        <CharString name="asterisk">
          -928 468 931 rmoveto
          68 68 44 71 30 -60 177 -37 106 hvcurveto
          74 -85 124 -139 25 -15 rrcurveto
          -10 17 18 -5 18 hhcurveto
          45 43 32 42 25 hvcurveto
          14 24 8 26 27 vvcurveto
          39 -17 37 -37 21 vhcurveto
          -26 14 -183 38 -110 20 110 22 183 37 26 15 rrcurveto
          37 20 16 38 38 vvcurveto
          26 -7 27 -14 25 vhcurveto
          43 -24 -44 31 -48 hhcurveto
          -16 -18 -4 -10 -17 hvcurveto
          -26 -15 -122 -140 -74 -86 rrcurveto
          38 106 59 176 30 vvcurveto
          72 -68 44 -68 -68 -66 -44 -72 -29 58 -176 38 -107 vhcurveto
          -74 86 -123 139 -25 14 rrcurveto
          10 -17 -18 5 -18 hhcurveto
          -46 -45 -31 -43 -24 hvcurveto
          -14 -24 -7 -27 -26 vvcurveto
          -38 17 -38 38 -21 vhcurveto
          24 -16 182 -36 111 -21 -111 -21 -181 -37 -25 -14 rrcurveto
          -37 -22 -17 -38 -39 vvcurveto
          -27 7 -27 13 -22 vhcurveto
          -43 25 43 -30 46 hhcurveto
          18 19 4 11 18 hvcurveto
          24 14 123 139 74 86 rrcurveto
          -37 -106 -59 -178 -29 vvcurveto
          -71 66 -44 68 vhcurveto
          endchar
        </CharString>
        <CharString name="at">
          1045 126 381 rmoveto
          -465 355 -308 909 530 436 101 77 122 vhcurveto
          -56 106 rlineto
          -85 -199 -480 -50 -309 hhcurveto
          -804 -298 232 410 473 404 413 808 621 438 -209 -408 -227 -137 -262 -232 -76 -35 29 55 6 0 7 1 7 hvcurveto
          117 563 rlineto
          167 -197 -234 47 -256 hhcurveto
          -419 -499 -212 -434 -275 222 -135 269 265 164 61 111 100 hvcurveto
          -115 40 126 -49 247 hhcurveto
          423 293 269 404 421 -415 329 -814 -897 -533 -450 -604 hvcurveto
          1010 28 rmoveto
          269 157 206 210 143 69 -79 -63 -37 -29 -131 -77 -209 vhcurveto
          -100 -37 -109 -60 -115 hhcurveto
          -139 -73 94 110 hvcurveto
          endchar
        </CharString>
        <CharString name="atilde">
          -102 446 -85 callsubr
          -286 -1164 -107 callsubr
        </CharString>
        <CharString name="b">
          104 40 hmoveto
          748 177 hlineto
          12 callsubr
          662 48 callsubr
          477 309 -30 callsubr
        </CharString>
        <CharString name="backslash">
          -956 553 -151 rmoveto
          269 hlineto
          -463 62 callsubr
        </CharString>
        <CharString name="bar">
          -1208 230 -525 rmoveto
          198 2283 -198 hlineto
          endchar
        </CharString>
        <CharString name="braceleft">
          -899 224 180 rmoveto
          -194 110 -186 524 -26 vhcurveto
          49 133 rlineto
          -240 37 -57 98 116 vvcurveto
          48 10 52 11 51 vhcurveto
          13 61 13 61 56 vvcurveto
          107 -50 88 -205 35 vhcurveto
          205 35 50 88 107 vvcurveto
          56 -13 61 -13 61 vhcurveto
          -11 51 -10 52 48 vvcurveto
          116 57 98 240 37 vhcurveto
          -49 133 rlineto
          -524 -26 -110 -186 -194 vvcurveto
          -61 10 -61 13 -57 vhcurveto
          17 -74 16 -69 -51 vvcurveto
          -58 -23 -37 -77 vhcurveto
          -138 vlineto
          77 23 -37 -58 -51 -16 -69 -17 -74 hvcurveto
          -13 -57 -10 -61 -61 vvcurveto
          endchar
        </CharString>
        <CharString name="braceright">
          -899 60 -93 rmoveto
          49 -133 rlineto
          524 26 110 186 194 vvcurveto
          61 -10 61 -13 57 vhcurveto
          -17 74 -16 69 51 vvcurveto
          58 23 37 77 vhcurveto
          138 vlineto
          -77 -23 37 58 51 16 69 17 74 hvcurveto
          13 57 10 61 61 vvcurveto
          194 -110 186 -524 26 vhcurveto
          -49 -133 rlineto
          240 -37 57 -98 -116 vvcurveto
          -48 -10 -52 -11 -51 vhcurveto
          -13 -61 -13 -61 -56 vvcurveto
          -107 50 -88 205 -35 vhcurveto
          -205 -35 -50 -88 -107 vvcurveto
          -56 13 -61 13 -61 vhcurveto
          11 -51 10 -52 -48 vvcurveto
          -116 -57 -98 -240 -37 vhcurveto
          endchar
        </CharString>
        <CharString name="bracketleft">
          -892 230 -225 rmoveto
          664 193 -316 1497 316 193 -664 hlineto
          endchar
        </CharString>
        <CharString name="bracketright">
          -892 80 -32 rmoveto
          -193 664 1883 -664 -193 316 -1497 vlineto
          endchar
        </CharString>
        <CharString name="brokenbar">
          -1208 230 775 rmoveto
          198 983 -198 hlineto
          -1300 vmoveto
          -983 198 983 vlineto
          endchar
        </CharString>
        <CharString name="bullet">
          -1005 430 445 rmoveto
          172 139 139 171 172 -139 139 -172 -172 -138 -139 -172 -171 138 -139 172 hvcurveto
          endchar
        </CharString>
        <CharString name="c">
          -137 100 562 rmoveto
          -390 309 -211 532 339 263 139 203 80 vhcurveto
          -102 80 rlineto
          -23 callsubr
          -456 -348 -206 -378 hvcurveto
          endchar
        </CharString>
        <CharString name="caron">
          -850 338 22 callsubr
          endchar
        </CharString>
        <CharString name="ccedilla">
          -137 474 -284 -10 callsubr
          78 vlineto
          283 27 213 129 71 180 -102 80 rcurveline
          -23 callsubr
          -445 -359 -226 -358 -359 262 -207 457 -31 hvcurveto
          -20 -162 14 callsubr
        </CharString>
        <CharString name="cedilla">
          -850 77 -264 -10 callsubr
          134 vlineto
          -224 48 -33 -268 14 callsubr
        </CharString>
        <CharString name="cent">
          -112 100 660 rmoveto
          -342 237 -204 417 -45 vhcurveto
          -26 -304 rlineto
          226 hlineto
          21 294 323 9 247 137 78 196 rlinecurve
          -102 80 rlineto
          -50 callsubr
          -78 48 -110 39 -140 17 rlinecurve
          21 293 rlineto
          -220 hlineto
          -21 -286 rlineto
          -415 -20 -325 -221 -341 vvcurveto
          endchar
        </CharString>
        <CharString name="circumflex">
          -850 -42 1208 -68 callsubr
          endchar
        </CharString>
        <CharString name="circumflex.case">
          -850 -128 1604 -69 callsubr
          endchar
        </CharString>
        <CharString name="colon">
          -1127 2 callsubr
          -437 -71 callsubr
        </CharString>
        <CharString name="comma">
          -1118 120 203 -14 callsubr
        </CharString>
        <CharString name="commaaccent">
          -850 325 -262 -73 callsubr
        </CharString>
        <CharString name="copyright">
          -43 callsubr
          146 -14 rmoveto
          -296 263 -117 235 253 212 115 218 5 vhcurveto
          -180 hlineto
          -148 -13 -114 -53 -121 hhcurveto
          -120 -114 94 200 193 75 118 176 137 72 -97 -124 32 hvcurveto
          170 29 rlineto
          272 -111 vlineto
          -29 -38 rlineto
          40 -66 -103 38 -130 hhcurveto
          -242 -287 -108 -336 hvcurveto
          endchar
        </CharString>
        <CharString name="currency">
          -293 65 186 rmoveto
          190 -188 205 203 rlineto
          -59 93 111 -34 120 hhcurveto
          120 112 35 60 94 hvcurveto
          208 -205 190 188 -210 207 rlineto
          58 93 34 110 118 vvcurveto
          118 -34 111 -59 93 vhcurveto
          211 209 -190 188 -210 -208 rlineto
          60 -94 -111 35 -119 hhcurveto
          -119 -110 -34 -58 -93 hvcurveto
          -207 205 -190 -188 207 -206 rlineto
          -60 -94 -34 -111 -120 vvcurveto
          -120 34 -111 59 -93 vhcurveto
          135 324 rmoveto
          209 168 168 210 209 168 -168 -209 -209 -168 -168 -209 -210 -168 168 209 vhcurveto
          endchar
        </CharString>
        <CharString name="d">
          84 100 540 rmoveto
          -310 190 -269 454 185 159 72 150 94 vhcurveto
          -183 748 vlineto
          -271 18 callsubr
          1340 vlineto
          -739 -64 callsubr
          -406 vlineto
          159 -101 -174 63 -193 hhcurveto
          -372 -1 -242 -259 -346 vvcurveto
          526 13 13 callsubr
        </CharString>
        <CharString name="degree">
          -926 469 981 rmoveto
          225 183 182 224 225 -183 183 -225 -224 -182 -183 -225 -224 182 -182 224 hvcurveto
          191 vmoveto
          -118 -97 97 118 119 97 98 118 119 98 -98 -119 -118 -98 -97 -119 hvcurveto
          endchar
        </CharString>
        <CharString name="dieresis">
          -850 810 1224 -101 callsubr
          endchar
        </CharString>
        <CharString name="dieresis.case">
          -850 810 1545 -97 callsubr
          endchar
        </CharString>
        <CharString name="divide">
          -572 660 891 rmoveto
          113 93 91 114 113 66 callsubr
          -113 -114 92 -91 113 hvcurveto
          -517 -352 17 callsubr
          312 -558 rmoveto
          -113 92 -91 113 113 93 91 113 114 66 callsubr
          -114 vhcurveto
          endchar
        </CharString>
        <CharString name="dollar">
          78 165 64 callsubr
          88 -44 94 -31 95 -20 rlinecurve
          -29 -276 rlineto
          226 hlineto
          22 248 rlineto
          -2 24 19 0 18 -11 callsubr
          -68 23 -86 22 -87 16 rlinecurve
          25 272 rlineto
          -220 hlineto
          -22 -242 rlineto
          2 -17 -35 2 -22 -9 callsubr
        </CharString>
        <CharString name="dotlessi">
          -811 40 hmoveto
          -77 callsubr
        </CharString>
        <CharString name="e">
          -157 100 537 -104 callsubr
        </CharString>
        <CharString name="eacute">
          -157 711 -45 callsubr
          -921 -1126 -104 callsubr
        </CharString>
        <CharString name="ecircumflex">
          -157 369 -66 callsubr
          -649 -1126 -104 callsubr
        </CharString>
        <CharString name="edieresis">
          -157 1222 -99 callsubr
          -516 -726 -104 callsubr
        </CharString>
        <CharString name="egrave">
          -157 916 -21 callsubr
          -216 -1126 -104 callsubr
        </CharString>
        <CharString name="eight">
          12 100 351 rmoveto
          -227 312 -164 517 507 342 138 324 231 -186 109 -218 59 vhcurveto
          175 45 129 94 146 vvcurveto
          248 -329 118 -416 -348 -409 -107 -319 -189 144 -112 187 -77 vhcurveto
          -210 -38 -197 -92 -187 vvcurveto
          591 728 rmoveto
          105 119 77 169 133 181 -41 -145 -102 -56 -67 -116 -32 vhcurveto
          -229 41 -201 33 131 vvcurveto
          -163 -659 rmoveto
          84 76 62 106 33 vhcurveto
          84 -24 84 -21 79 -18 rrcurveto
          204 -46 162 -49 -91 vvcurveto
          -128 -139 -43 -222 -226 -208 94 147 vhcurveto
          endchar
        </CharString>
        <CharString name="emdash">
          402 110 460 rmoveto
          2048 222 -2048 hlineto
          endchar
        </CharString>
        <CharString name="endash">
          -622 110 460 rmoveto
          1024 222 -1024 hlineto
          endchar
        </CharString>
        <CharString name="equal">
          -572 143 829 17 callsubr
          -792 vmoveto
          1008 242 -1008 hlineto
          endchar
        </CharString>
        <CharString name="eth">
          -70 100 495 rmoveto
          -366 387 -168 378 542 259 225 483 290 -125 220 -198 152 vhcurveto
          203 117 -110 191 -313 -180 rlineto
          83 -189 -225 42 -236 hhcurveto
          -53 -128 179 -22 155 -46 121 -72 rlinecurve
          -233 -134 110 -191 299 172 rlineto
          68 -89 38 -110 -131 vvcurveto
          56 -125 -129 32 -180 hhcurveto
          -320 -303 -122 -304 hvcurveto
          477 -70 rmoveto
          180 100 99 188 106 71 -29 -46 111 vhcurveto
          -262 -14 -53 -201 -221 hhcurveto
          -185 -103 101 158 hvcurveto
          endchar
        </CharString>
        <CharString name="exclam">
          -1127 231 598 rmoveto
          277 hlineto
          30 170 50 425 20 329 rrcurveto
          -477 hlineto
          20 -329 50 -425 30 -170 rrcurveto
          -111 -388 -71 callsubr
        </CharString>
        <CharString name="exclamdown">
          -1127 370 538 rmoveto
          27 callsubr
          -138 112 -112 138 hvcurveto
          -139 -138 rmoveto
          -30 -170 -50 -425 -20 -329 rrcurveto
          477 hlineto
          -20 329 -50 425 -30 170 rrcurveto
          endchar
        </CharString>
        <CharString name="f">
          -584 40 hmoveto
          1119 hlineto
          -371 18 callsubr
          659 371 204 -371 54 vlineto
          218 17 173 165 105 63 -76 -103 -17 -1 -18 -3 -18 vhcurveto
          367 95 rlineto
          1 11 1 12 11 vvcurveto
          263 -338 39 -197 -348 -309 -171 -342 vhcurveto
          -131 -262 -204 262 -659 vlineto
          endchar
        </CharString>
        <CharString name="five">
          96 160 359 rmoveto
          -265 333 -133 448 524 392 179 340 385 -407 80 -329 -226 -267 -60 -76 -150 vhcurveto
          15 137 24 224 4 vvcurveto
          140 131 -29 -31 142 hvcurveto
          -31 144 155 -30 186 hhcurveto
          264 89 66 243 25 -3 25 -7 22 hvcurveto
          -18 -98 -219 -6 -236 hhcurveto
          -345 -374 13 11 -204 hvcurveto
          -80 -779 203 -85 rlineto
          65 106 189 85 208 hhcurveto
          209 161 -72 -219 -197 -136 -93 -205 -226 -85 138 102 35 10 32 18 19 hvcurveto
          -489 -57 rlineto
          -3 -16 -2 -17 -16 vvcurveto
          endchar
        </CharString>
        <CharString name="foundryicon">
          endchar
        </CharString>
        <CharString name="four">
          93 20 370 rmoveto
          971 -116 hlineto
          -311 11 callsubr
          1089 hlineto
          -271 0 callsubr
          116 391 206 -391 858 -603 vlineto
          -875 -948 rlineto
          453 90 rmoveto
          518 612 rlineto
          -612 vlineto
          endchar
        </CharString>
        <CharString name="g">
          -102 40 -212 rmoveto
          -179 310 -84 479 565 338 101 276 211 -178 104 -550 -401 -110 32 67 15 10 12 14 10 vhcurveto
          -27 92 102 -14 103 hhcurveto
          328 329 140 277 103 -45 84 -74 65 hvcurveto
          47 15 33 35 53 hhcurveto
          48 52 -33 -91 -12 -1 -14 -2 -14 hvcurveto
          255 58 rlineto
          12 34 5 32 28 vvcurveto
          153 -107 75 -170 -134 -145 -68 -154 -30 vhcurveto
          59 -118 -151 30 -150 hhcurveto
          -327 -326 -139 -278 -154 98 -111 143 -68 hvcurveto
          -137 -17 -148 -63 -110 vvcurveto
          -94 102 -59 154 -32 vhcurveto
          -182 -41 -154 -75 -117 vvcurveto
          550 941 rmoveto
          159 104 75 123 130 97 -75 -159 -154 -103 -73 -124 -123 -104 69 158 vhcurveto
          -60 -856 rmoveto
          51 30 42 46 28 vhcurveto
          -2 48 50 -2 51 hhcurveto
          422 105 -39 -112 -112 -231 -17 -198 -263 -60 72 91 hvcurveto
          endchar
        </CharString>
        <CharString name="germandbls">
          310 40 hmoveto
          748 1190 hlineto
          231 10 165 264 103 113 -66 -162 vhcurveto
          -360 -384 -19 -285 vvcurveto
          -240 306 -52 232 -24 vhcurveto
          221 -22 39 -37 -54 vvcurveto
          -67 -72 -24 -70 -215 -230 101 133 -168 vhcurveto
          -434 vlineto
          262 117 rlineto
          -85 126 129 -45 137 hhcurveto
          245 302 115 293 269 -262 62 -284 49 hvcurveto
          -233 40 -80 17 72 122 466 123 249 vvcurveto
          300 -309 79 -400 -416 -309 -166 -347 vhcurveto
          -994 vlineto
          endchar
        </CharString>
        <CharString name="grave">
          -850 700 1208 -16 callsubr
          endchar
        </CharString>
        <CharString name="grave.case">
          -850 665 1604 -15 callsubr
          endchar
        </CharString>
        <CharString name="greater">
          -884 314 195 rmoveto
          536 535 -536 536 -171 -172 364 -364 -364 -364 rlineto
          endchar
        </CharString>
        <CharString name="guillemotleft">
          -213 790 584 4 callsubr
          -1347 -537 4 callsubr
          endchar
        </CharString>
        <CharString name="guillemotright">
          -233 770 123 3 callsubr
          -984 -458 3 callsubr
          endchar
        </CharString>
        <CharString name="guilsinglleft">
          -913 90 584 4 callsubr
          endchar
        </CharString>
        <CharString name="guilsinglright">
          -913 90 123 3 callsubr
          endchar
        </CharString>
        <CharString name="h">
          -35 callsubr
          683 48 callsubr
          endchar
        </CharString>
        <CharString name="hbar">
          -35 callsubr
          245 186 174 -186 264 vlineto
          -739 -64 callsubr
          -10 -243 -174 243 -902 vlineto
          endchar
        </CharString>
        <CharString name="hyphen">
          -572 143 609 17 callsubr
          endchar
        </CharString>
        <CharString name="i">
          -811 522 1235 -33 callsubr
          -482 -1235 -70 callsubr
        </CharString>
        <CharString name="iacute">
          -811 329 -45 callsubr
          -599 -18 callsubr
        </CharString>
        <CharString name="icircumflex">
          -811 -13 -66 callsubr
          -327 -18 callsubr
        </CharString>
        <CharString name="idieresis">
          -811 840 -99 callsubr
          -194 -1263 -70 callsubr
        </CharString>
        <CharString name="igrave">
          -811 534 -21 callsubr
          106 -18 callsubr
        </CharString>
        <CharString name="ij">
          170 1300 1495 rmoveto
          33 callsubr
          -37 callsubr
          vhcurveto
          -778 -260 -33 callsubr
          318 -1394 rmoveto
          -62 callsubr
          -1053 59 -70 callsubr
        </CharString>
        <CharString name="itilde">
          -811 114 -85 callsubr
          -8 -1422 -70 callsubr
        </CharString>
        <CharString name="j">
          -808 582 1235 -33 callsubr
          -467 -1294 -29 callsubr
        </CharString>
        <CharString name="jcircumflex">
          -808 19 -66 callsubr
          -284 -1722 -29 callsubr
        </CharString>
        <CharString name="k">
          -36 callsubr
          endchar
        </CharString>
        <CharString name="kcommaaccent">
          -36 callsubr
          439 -506 -73 callsubr
        </CharString>
        <CharString name="kgreenlandic">
          -59 callsubr
          511 vlineto
          -729 -56 callsubr
        </CharString>
        <CharString name="l">
          -797 26 callsubr
          endchar
        </CharString>
        <CharString name="ldot">
          -394 26 callsubr
          572 366 -71 callsubr
        </CharString>
        <CharString name="less">
          -884 668 195 rmoveto
          171 171 -364 364 364 364 -171 172 -536 -536 rlineto
          endchar
        </CharString>
        <CharString name="logicalnot">
          -462 143 992 rmoveto
          869 -325 242 567 -1111 hlineto
          endchar
        </CharString>
        <CharString name="lslash">
          -797 37 callsubr
          464 vlineto
          291 78 -51 191 -240 -65 rlineto
          672 vlineto
          -729 -64 callsubr
          -543 vlineto
          -282 -75 51 -191 231 62 rlineto
          -339 vlineto
          endchar
        </CharString>
        <CharString name="m">
          941 40 hmoveto
          912 -47 callsubr
          31 -24 callsubr
          835 hlineto
          -184 18 callsubr
          340 vlineto
          15 -1 15 15 vvcurveto
          159 29 93 89 123 hhcurveto
          150 31 -143 -171 hvcurveto
          -321 vlineto
          -173 -242 rlineto
          882 hlineto
          -251 244 -1 -4 rlineto
          344 vlineto
          372 -124 190 -310 -214 -174 -104 -182 -95 vhcurveto
          190 -58 -131 96 -220 hhcurveto
          45 callsubr
          hvcurveto
          206 vlineto
          -719 -56 callsubr
        </CharString>
        <CharString name="macron">
          -850 4 1609 17 callsubr
          endchar
        </CharString>
        <CharString name="mu">
          66 220 -436 rmoveto
          467 528 hlineto
          -70 44 77 -22 97 hhcurveto
          102 100 45 111 66 hvcurveto
          80 -173 639 100 -262 154 rlineto
          883 vlineto
          -477 -43 rlineto
          -564 vlineto
          -170 -61 -131 -167 -172 -66 139 225 vhcurveto
          544 vlineto
          -467 -43 rlineto
          endchar
        </CharString>
        <CharString name="multiply">
          -619 315 195 rmoveto
          309 309 309 -309 171 171 -309 309 309 310 -171 171 -309 -309 -309 309 -172 -171 309 -310 -309 -309 rlineto
          endchar
        </CharString>
        <CharString name="n">
          131 40 hmoveto
          -78 callsubr
        </CharString>
        <CharString name="nacute">
          131 835 -45 callsubr
          -1105 -1663 rmoveto
          -78 callsubr
        </CharString>
        <CharString name="nbspace">
          -1248 endchar
        </CharString>
        <CharString name="nine">
          69 167 285 rmoveto
          -241 374 -83 350 607 297 336 443 489 -282 243 -589 -421 -394 -140 -382 -313 349 -125 324 180 179 32 56 125 vhcurveto
          -285 -99 -148 -269 -231 -82 99 70 26 4 20 5 24 vhcurveto
          -416 -59 rlineto
          -7 -18 -4 -24 -20 vvcurveto
          757 444 rmoveto
          -179 -108 98 163 172 91 105 196 235 94 -189 -274 9 hvcurveto
          -46 -111 -121 -29 -106 hhcurveto
          endchar
        </CharString>
        <CharString name="ntilde">
          131 620 -85 callsubr
          -514 -1422 rmoveto
          -78 callsubr
        </CharString>
        <CharString name="numbersign">
          42 349 hmoveto
          219 hlineto
          104 370 rlineto
          331 hlineto
          -104 -370 rlineto
          219 hlineto
          104 370 rlineto
          448 208 -389 hlineto
          79 282 rlineto
          403 208 -344 50 callsubr
          -330 50 callsubr
          -426 -208 367 hlineto
          -79 -282 rlineto
          -381 -208 323 hlineto
          278 208 rmoveto
          79 282 rlineto
          330 hlineto
          -79 -282 rlineto
          endchar
        </CharString>
        <CharString name="o">
          -18 100 553 -106 callsubr
        </CharString>
        <CharString name="oacute">
          -18 716 -45 callsubr
          -926 -1110 -106 callsubr
        </CharString>
        <CharString name="ocircumflex">
          -18 374 -66 callsubr
          -654 -1110 -106 callsubr
        </CharString>
        <CharString name="odieresis">
          -18 1227 -99 callsubr
          -521 -710 -106 callsubr
        </CharString>
        <CharString name="oe">
          970 100 553 rmoveto
          -413 352 -179 477 224 197 40 85 146 vhcurveto
          -83 142 191 -42 219 hhcurveto
          329 291 134 194 74 hvcurveto
          -25 callsubr
          -173 -185 66 246 -3 hvcurveto
          13 2 12 13 vvcurveto
          973 -8 callsubr
          -185 -209 -31 -95 -160 vhcurveto
          85 -145 -195 41 -223 hhcurveto
          -477 -352 -185 -408 hvcurveto
          531 -89 callsubr
          1131 146 -44 callsubr
        </CharString>
        <CharString name="ograve">
          -18 921 -21 callsubr
          -221 -1110 -106 callsubr
        </CharString>
        <CharString name="one">
          -731 71 hmoveto
          1049 hlineto
          -271 0 callsubr
          1180 -179 vlineto
          -610 -190 282 -164 rlineto
          -826 vlineto
          endchar
        </CharString>
        <CharString name="onehalf">
          741 20 callsubr
          264 -695 29 callsubr
          -61 -1290 rmoveto
          -55 13 -46 20 -43 vhcurveto
          993 361 hlineto
          -244 -203 rlineto
          -419 hlineto
          4 -1 5 3 191 684 -76 47 callsubr
          -285 60 callsubr
          315 55 callsubr
          53 49 callsubr
          90 -379 vvcurveto
          endchar
        </CharString>
        <CharString name="onequarter">
          534 20 callsubr
          236 -695 29 callsubr
          -246 -17 callsubr
        </CharString>
        <CharString name="onesuperior">
          -893 180 1026 rmoveto
          654 38 callsubr
          714 -174 vlineto
          -333 -138 179 -104 rlineto
          -472 vlineto
          endchar
        </CharString>
        <CharString name="ordfeminine">
          -516 444 884 rmoveto
          124 134 36 84 83 hvcurveto
          -96 26 73 -24 125 hhcurveto
          103 70 27 18 17 hvcurveto
          88 vlineto
          -59 -35 26 80 hvcurveto
          262 vlineto
          310 -200 71 -248 -198 -279 -58 -201 vhcurveto
          287 -47 rlineto
          107 13 77 37 74 hhcurveto
          109 28 -74 -132 6 hvcurveto
          2 -44 -46 2 -39 hhcurveto
          -213 -282 -39 -237 -185 172 -57 122 hvcurveto
          160 167 rmoveto
          -60 -51 52 53 73 71 44 179 hvcurveto
          32 -97 hlineto
          -93 -7 -102 -32 -62 hhcurveto
          endchar
        </CharString>
        <CharString name="ordmasculine">
          -516 676 884 rmoveto
          309 229 133 307 305 -229 137 -309 -311 -230 -137 -305 -307 230 -133 311 hvcurveto
          150 vmoveto
          -108 -87 108 182 184 87 110 108 104 88 -110 -184 -182 -88 -108 -104 hvcurveto
          endchar
        </CharString>
        <CharString name="oslash">
          -18 100 553 rmoveto
          -341 229 -177 341 -55 vhcurveto
          -57 -181 rlineto
          149 hlineto
          52 166 rlineto
          -2 36 36 -2 38 hhcurveto
          6 callsubr
          324 -226 187 -337 60 hvcurveto
          62 195 rlineto
          -151 hlineto
          -56 -177 rlineto
          2 -38 -39 2 -39 hhcurveto
          5 callsubr
          hvcurveto
          647 -332 rmoveto
          -73 69 -48 116 147 vvcurveto
          -5 callsubr
          19 20 -3 -4 18 vhcurveto
          -106 -805 rmoveto
          233 729 rlineto
          69 -73 45 -115 -142 vvcurveto
          -3 callsubr
          -17 -16 2 3 -16 vhcurveto
          endchar
        </CharString>
        <CharString name="otilde">
          -18 501 -85 callsubr
          -335 -869 -106 callsubr
        </CharString>
        <CharString name="p">
          36 callsubr
          369 vlineto
          12 callsubr
          185 10 callsubr
          477 -280 -30 callsubr
        </CharString>
        <CharString name="paragraph">
          109 772 486 rmoveto
          90 124 6 8 84 hvcurveto
          934 vlineto
          4 -75 -168 3 -81 hhcurveto
          -474 -194 -187 -303 -358 227 -107 467 hvcurveto
          124 -786 rmoveto
          1049 hlineto
          -311 0 callsubr
          1226 vlineto
          310 0 callsubr
          -667 -1480 hlineto
          endchar
        </CharString>
        <CharString name="parenleft">
          -954 110 69 callsubr
          -554 351 -353 342 -36 vhcurveto
          49 133 rlineto
          -232 87 -116 362 361 vvcurveto
          361 116 361 232 88 vhcurveto
          -49 133 rlineto
          -342 -36 -351 -353 -554 vvcurveto
          endchar
        </CharString>
        <CharString name="parenright">
          -954 60 -93 rmoveto
          49 -133 rlineto
          342 36 351 353 554 vvcurveto
          554 -351 353 -342 36 vhcurveto
          -49 -133 rlineto
          232 -88 116 -361 -361 vvcurveto
          -361 -116 -362 -232 -87 vhcurveto
          endchar
        </CharString>
        <CharString name="percent">
          163 525 771 rmoveto
          31 callsubr
          -248 212 -102 193 hvcurveto
          -219 -771 rmoveto
          309 hlineto
          1105 1434 rlineto
          -311 hlineto
          -884 -536 rmoveto
          -97 -44 78 145 43 callsubr
          hvcurveto
          573 -587 rmoveto
          -248 212 -102 193 31 callsubr
          vhcurveto
          264 hmoveto
          43 callsubr
          -97 -44 78 145 vhcurveto
          endchar
        </CharString>
        <CharString name="period">
          -1127 120 210 -71 callsubr
        </CharString>
        <CharString name="periodcentered">
          -1127 369 501 -34 callsubr
          endchar
        </CharString>
        <CharString name="plus">
          -572 526 227 28 callsubr
          endchar
        </CharString>
        <CharString name="plusminus">
          -572 526 337 28 callsubr
          -383 -719 17 callsubr
          endchar
        </CharString>
        <CharString name="q">
          34 100 544 rmoveto
          -312 189 -271 455 176 172 61 162 90 vhcurveto
          -376 vlineto
          -371 21 callsubr
          1119 -31 callsubr
          1299 vlineto
          -370 -230 rlineto
          198 -130 -195 71 -213 hhcurveto
          -365 -286 -207 -395 hvcurveto
          526 9 13 callsubr
        </CharString>
        <CharString name="question">
          -100 690 597 rmoveto
          344 hlineto
          -5 13 -2 12 12 180 628 -64 371 vvcurveto
          265 -330 114 -467 -375 -357 -101 -335 -29 3 -31 5 -32 vhcurveto
          398 -77 rlineto
          -8 31 -3 29 27 vvcurveto
          221 171 83 186 155 147 -64 -126 vhcurveto
          -190 -507 22 -246 vvcurveto
          -25 5 -29 12 -31 vhcurveto
          -69 -387 -71 callsubr
        </CharString>
        <CharString name="questiondown">
          -100 646 787 rmoveto
          -138 112 -112 138 27 callsubr
          vhcurveto
          -535 -911 rmoveto
          -265 330 -114 467 375 357 101 335 29 -3 31 -5 32 vhcurveto
          -398 77 rlineto
          8 -31 3 -29 -27 vvcurveto
          -221 -171 -83 -186 -155 -147 64 126 vhcurveto
          190 507 -22 246 vvcurveto
          25 -5 29 -12 31 vhcurveto
          -344 hlineto
          5 -13 2 -12 -12 -180 -628 64 -371 vvcurveto
          endchar
        </CharString>
        <CharString name="quotedbl">
          -748 753 1106 rmoveto
          -13 callsubr
          -490 hmoveto
          -13 callsubr
          endchar
        </CharString>
        <CharString name="quotedblbase">
          -524 720 125 rmoveto
          -51 callsubr
          -600 hmoveto
          -51 callsubr
          endchar
        </CharString>
        <CharString name="quotedblleft">
          -524 974 1063 rmoveto
          -52 callsubr
          -600 hmoveto
          -52 callsubr
          endchar
        </CharString>
        <CharString name="quotedblright">
          -524 933 1063 -49 callsubr
          -533 -63 -49 callsubr
          endchar
        </CharString>
        <CharString name="quoteleft">
          -1124 374 1063 rmoveto
          -52 callsubr
          endchar
        </CharString>
        <CharString name="quoteright">
          -1124 333 1063 -49 callsubr
          endchar
        </CharString>
        <CharString name="quotesinglbase">
          -1124 120 125 rmoveto
          -51 callsubr
          endchar
        </CharString>
        <CharString name="quotesingle">
          -1238 263 1106 rmoveto
          -13 callsubr
          endchar
        </CharString>
        <CharString name="r">
          -307 50 hmoveto
          1086 hlineto
          -348 0 callsubr
          275 vlineto
          137 84 209 158 -57 callsubr
          endchar
        </CharString>
        <CharString name="rcaron">
          -307 590 22 callsubr
          -160 -1624 rmoveto
          1086 hlineto
          -348 0 callsubr
          275 vlineto
          137 84 209 158 -57 callsubr
          endchar
        </CharString>
        <CharString name="rcommaaccent">
          -307 50 hmoveto
          1086 hlineto
          -348 0 callsubr
          285 vlineto
          137 88 199 154 -57 callsubr
          14 -506 -73 callsubr
        </CharString>
        <CharString name="registered">
          -43 callsubr
          154 -376 rmoveto
          474 hlineto
          -93 137 rlineto
          172 158 vlineto
          53 44 -54 -74 hvcurveto
          -68 vlineto
          -77 -113 rlineto
          435 hlineto
          -74 126 rlineto
          32 vlineto
          111 -70 84 -88 13 vhcurveto
          113 34 72 60 101 vvcurveto
          199 -268 17 -196 -93 -232 -2 -2 -136 vhcurveto
          89 -138 rlineto
          -498 vlineto
          270 278 rmoveto
          245 75 vlineto
          93 120 -9 -116 -99 -69 -21 -144 hvcurveto
          endchar
        </CharString>
        <CharString name="ring">
          -850 508 1196 -81 callsubr
          endchar
        </CharString>
        <CharString name="ring.case">
          -850 507 1377 -81 callsubr
          endchar
        </CharString>
        <CharString name="s">
          -205 179 -26 rmoveto
          56 callsubr
          -45 175 hhcurveto
          269 338 115 293 269 -289 78 -317 33 hvcurveto
          -323 33 -55 26 52 callsubr
          -68 -131 222 vhcurveto
          396 51 callsubr
          41 53 callsubr
          -296 330 -56 295 -24 hvcurveto
          294 -24 56 -34 57 callsubr
          101 133 -204 vhcurveto
          endchar
        </CharString>
        <CharString name="section">
          -125 218 191 rmoveto
          -444 vlineto
          56 callsubr
          -52 175 hhcurveto
          267 340 114 289 138 -77 80 -119 50 hvcurveto
          121 55 87 91 146 vvcurveto
          268 -288 77 -318 42 vhcurveto
          -320 42 -58 15 52 callsubr
          -92 -131 222 vhcurveto
          406 51 callsubr
          55 53 callsubr
          -137 75 -78 111 -47 hvcurveto
          -120 -62 -78 -98 -138 vvcurveto
          -287 331 -55 294 -37 vhcurveto
          290 -37 60 -18 57 callsubr
          118 133 -204 vhcurveto
          397 440 rmoveto
          39 17 55 74 19 vhcurveto
          109 -13 rlineto
          290 -37 60 -48 -65 vvcurveto
          -52 -32 -38 -61 -15 vhcurveto
          -79 11 rlineto
          -320 42 -58 45 57 vvcurveto
          endchar
        </CharString>
        <CharString name="semicolon">
          -1118 2 callsubr
          -444 -14 callsubr
        </CharString>
        <CharString name="seven">
          -75 435 98 rmoveto
          -44 7 -22 17 -32 vhcurveto
          718 hlineto
          -51 34 -21 37 70 vvcurveto
          197 159 210 157 213 vhcurveto
          136 185 124 192 187 vvcurveto
          37 -5 36 -10 36 vhcurveto
          -1232 hlineto
          -234 45 -30 -688 425 380 714 56 -8 -142 -163 -139 -184 -151 rlinecurve
          -242 -200 -277 -221 -276 vvcurveto
          endchar
        </CharString>
        <CharString name="six">
          56 127 693 rmoveto
          -489 292 -243 589 421 394 140 382 313 -349 125 -324 -180 -189 -32 -56 -125 vhcurveto
          285 109 148 269 201 106 -99 -70 -29 -3 -21 -6 -20 vhcurveto
          412 59 rlineto
          7 18 4 24 20 vvcurveto
          241 -364 83 -350 -607 -307 -336 -443 vhcurveto
          533 -64 rmoveto
          46 111 131 29 106 hhcurveto
          179 108 -98 -163 -172 -91 -119 -196 -235 -104 203 274 -9 hvcurveto
          endchar
        </CharString>
        <CharString name="slash">
          -956 88 -151 rmoveto
          269 hlineto
          465 62 callsubr
        </CharString>
        <CharString name="space">
          -1248 endchar
        </CharString>
        <CharString name="sterling">
          89 32 232 rmoveto
          -185 196 -86 164 190 131 75 109 65 vhcurveto
          -90 213 256 -94 201 hhcurveto
          296 102 154 179 61 -11 77 -24 77 hvcurveto
          -134 22 rlineto
          -116 -28 -90 -67 -170 hhcurveto
          -57 -219 26 20 -83 hvcurveto
          -125 29 rlineto
          5 24 2 24 24 vvcurveto
          38 -4 38 -7 39 vhcurveto
          505 220 -559 hlineto
          -18 68 -14 67 62 vvcurveto
          135 78 110 176 163 102 -89 -138 -33 -2 -27 -7 -28 vhcurveto
          422 51 rlineto
          26 53 12 48 43 vvcurveto
          235 -367 85 -345 -565 -221 -136 -323 -58 14 -62 22 -63 vhcurveto
          -183 -220 276 hlineto
          19 -39 18 -39 17 -38 rrcurveto
          2 -33 -32 1 -33 hhcurveto
          -185 -155 -131 -134 hvcurveto
          217 -39 rmoveto
          67 53 42 76 28 60 -24 -34 80 vhcurveto
          1 -9 1 -9 -9 vvcurveto
          -72 -66 -63 -100 -81 -52 48 63 vhcurveto
          endchar
        </CharString>
        <CharString name="t">
          -467 232 437 rmoveto
          -345 224 -131 349 264 295 101 293 16 -1 17 -2 18 vhcurveto
          -172 51 rlineto
          2 -14 0 -14 -12 vvcurveto
          -161 -86 -77 -135 -106 -135 26 249 vhcurveto
          449 491 204 -491 415 -197 vlineto
          -198 -190 -266 -282 vhcurveto
          -155 172 vlineto
          endchar
        </CharString>
        <CharString name="thorn">
          36 callsubr
          339 vlineto
          -132 101 161 -54 193 15 callsubr
          -185 -162 -58 -135 -101 hvcurveto
          631 vlineto
          -739 -64 callsubr
          477 -777 -30 callsubr
        </CharString>
        <CharString name="three">
          117 135 385 rmoveto
          -331 423 -93 396 561 358 166 278 278 -319 47 -212 vhcurveto
          194 18 247 77 203 vvcurveto
          285 -268 159 -561 -322 -436 -98 -338 -29 4 -43 6 -13 vhcurveto
          474 hlineto
          218 95 99 177 165 102 -84 -165 -172 -156 -58 -225 vhcurveto
          -27 -160 rlineto
          293 206 -30 -206 -167 -130 -62 -181 -247 -133 110 218 hvcurveto
          -476 hlineto
          -6 -36 -2 -39 -32 vvcurveto
          endchar
        </CharString>
        <CharString name="threequarters">
          878 189 812 rmoveto
          -202 265 -75 236 337 219 100 167 166 -216 59 -127 vhcurveto
          116 11 189 65 121 vvcurveto
          160 -181 101 -337 -190 -263 59 callsubr
          300 hlineto
          134 64 65 callsubr
          -66 -144 vhcurveto
          -15 -106 rlineto
          170 109 -51 61 callsubr
          -87 79 126 hvcurveto
          -313 hlineto
          -2 -19 -2 -19 -17 vvcurveto
          718 -812 29 callsubr
          -231 -17 callsubr
        </CharString>
        <CharString name="threesuperior">
          -451 690 1003 rmoveto
          337 239 100 167 166 -236 28 -127 hvcurveto
          116 11 193 47 121 vvcurveto
          171 -185 95 -337 -190 -290 59 callsubr
          327 hlineto
          134 54 65 callsubr
          -52 -144 vhcurveto
          -15 -96 rlineto
          170 109 -31 61 callsubr
          -77 64 126 hvcurveto
          -330 hlineto
          -2 -19 -2 -19 -17 vvcurveto
          -185 282 -77 236 vhcurveto
          endchar
        </CharString>
        <CharString name="tilde">
          -850 85 1308 -94 callsubr
          endchar
        </CharString>
        <CharString name="tilde.case">
          -850 -25 1626 -93 callsubr
          endchar
        </CharString>
        <CharString name="two">
          40 204 hmoveto
          1523 619 hlineto
          -405 -355 rlineto
          -663 hlineto
          -2 13 -2 16 13 vvcurveto
          123 191 56 256 54 vhcurveto
          310 65 349 109 298 vvcurveto
          293 -248 168 -553 -412 -370 -86 -350 -29 3 -41 5 -32 vhcurveto
          445 hlineto
          239 101 85 197 167 131 -76 -163 -178 -173 -35 -315 -69 vhcurveto
          -285 -62 -304 -99 -335 vvcurveto
          -93 23 -75 31 -73 vhcurveto
          endchar
        </CharString>
        <CharString name="twosuperior">
          -491 200 1026 rmoveto
          993 361 hlineto
          -207 -203 rlineto
          -520 hlineto
          4 -1 5 3 191 748 -126 47 callsubr
          -275 60 callsubr
          299 55 callsubr
          59 49 callsubr
          140 -379 vvcurveto
          -55 13 -46 20 -43 vhcurveto
          endchar
        </CharString>
        <CharString name="u">
          92 255 523 -39 callsubr
        </CharString>
        <CharString name="uacute">
          92 752 -45 callsubr
          -807 -75 callsubr
        </CharString>
        <CharString name="ucircumflex">
          92 410 -66 callsubr
          -535 -75 callsubr
        </CharString>
        <CharString name="udieresis">
          92 1263 -99 callsubr
          -402 -740 -39 callsubr
        </CharString>
        <CharString name="ugrave">
          92 957 -21 callsubr
          -102 -75 callsubr
        </CharString>
        <CharString name="underscore">
          -358 -20 -72 rmoveto
          -222 1548 222 vlineto
          endchar
        </CharString>
        <CharString name="uni0001">
          endchar
        </CharString>
        <CharString name="uni0002">
          endchar
        </CharString>
        <CharString name="uni0003">
          endchar
        </CharString>
        <CharString name="uni0004">
          endchar
        </CharString>
        <CharString name="uni0005">
          endchar
        </CharString>
        <CharString name="uni0006">
          endchar
        </CharString>
        <CharString name="uni0007">
          endchar
        </CharString>
        <CharString name="uni0008">
          endchar
        </CharString>
        <CharString name="uni0009">
          endchar
        </CharString>
        <CharString name="uni0010">
          endchar
        </CharString>
        <CharString name="uni0011">
          endchar
        </CharString>
        <CharString name="uni0012">
          endchar
        </CharString>
        <CharString name="uni0013">
          endchar
        </CharString>
        <CharString name="uni0014">
          endchar
        </CharString>
        <CharString name="uni0015">
          endchar
        </CharString>
        <CharString name="uni0016">
          endchar
        </CharString>
        <CharString name="uni0017">
          endchar
        </CharString>
        <CharString name="uni0018">
          endchar
        </CharString>
        <CharString name="uni0019">
          endchar
        </CharString>
        <CharString name="uni00AD">
          -498 180 609 17 callsubr
          endchar
        </CharString>
        <CharString name="v">
          -37 666 hmoveto
          569 hlineto
          370 900 259 207 rlineto
          -789 hlineto
          156 -199 -209 -656 -269 697 111 158 rlineto
          -912 hlineto
          282 -255 rlineto
          endchar
        </CharString>
        <CharString name="w">
          857 565 hmoveto
          609 hlineto
          191 524 210 -524 rlineto
          609 hlineto
          319 874 240 233 rlineto
          -719 -32 callsubr
          -809 -32 callsubr
          -899 hlineto
          282 -256 rlineto
          endchar
        </CharString>
        <CharString name="x">
          -107 -10 hmoveto
          709 hlineto
          -87 123 169 232 216 -244 -77 -111 rlineto
          849 hlineto
          -334 245 -271 299 268 329 337 234 rlineto
          -719 hlineto
          87 -125 -151 -221 -205 234 78 112 rlineto
          -869 hlineto
          352 -248 257 -284 -275 -338 rlineto
          endchar
        </CharString>
        <CharString name="y">
          -114 81 27 -88 callsubr
        </CharString>
        <CharString name="yacute">
          -114 805 -45 callsubr
          -1034 -1636 -88 callsubr
        </CharString>
        <CharString name="ydieresis">
          -114 1316 -99 callsubr
          -629 -1236 -88 callsubr
        </CharString>
        <CharString name="yen">
          73 264 222 rmoveto
          465 hlineto
          -230 -222 rlineto
          989 hlineto
          -248 222 rlineto
          490 200 -492 18 hlineto
          57 102 rlineto
          435 200 -328 hlineto
          238 442 359 19 callsubr
          280 -449 rlineto
          -278 -200 403 hlineto
          64 -102 rlineto
          -18 -467 vlineto
          endchar
        </CharString>
        <CharString name="z">
          -178 70 hmoveto
          1499 552 hlineto
          -247 -338 rlineto
          -470 hlineto
          726 893 rlineto
          -1399 -532 hlineto
          244 318 rlineto
          388 hlineto
          endchar
        </CharString>
        <CharString name="zero">
          160 140 69 callsubr
          -536 455 -220 417 418 456 229 527 527 -456 228 -418 -417 -455 -228 -527 vhcurveto
          568 hmoveto
          313 97 247 207 217 89 -247 -313 -308 -99 -243 -207 -207 -97 237 314 vhcurveto
          endchar
        </CharString>
</ttFont>
